<svg xmlns="http://www.w3.org/2000/svg" xmlns:xlink="http://www.w3.org/1999/xlink" width="266.602" height="200" class="icon" p-id="25030" t="1628651448693" version="1.1" viewBox="0 0 1365 1024"><defs><style type="text/css"/></defs><path fill="#1296db" d="M1113.90604451 1.43892255c-3.20192187 0-4.94842492 1.16433598-5.82167651 2.32867027l-121.38196664 174.06814461c-7.56817962 10.7701031-19.50261869 17.17394677-32.3103077 17.17394681h-271.58123481c-12.22552182 0-23.57779209-5.82167648-31.14597336-15.71852816l-137.3915774-178.7254851c-0.29108441-0.29108441-1.16433598-0.87325153-2.328672-0.87325156s-2.03758756 0.29108441-2.61975467 0.58216717l-26.48862949 954.4639537c-0.58216713 22.12237334-18.33828276 39.87848731-39.87848903 39.87848726h-0.29108268c-44.53582948-0.29108441-88.19840743-10.18793425-130.11448224-28.81730141-0.29108441 0-0.58216713-0.29108441-0.87325158-0.29108271-50.35750599-23.86887644-78.30155586-66.076034-80.04806069-121.67305112-1.45541872-41.62499043 11.64335468-83.83214966 22.12237341-117.59787596 2.32867029-7.85926402 4.6573422-15.13636095 6.4038453-21.54020631 17.46503115-62.00086071 25.03321074-117.88896045 23.57779217-176.10573044-2.03758756-84.41431682-59.67219038-156.60311341-143.50434014-180.18090547-2.03758756-0.58216713-3.78409066-0.87325153-5.53059369-0.87325165-9.02360001 0-12.80768896 11.64335468-13.38985613 16.300697-1.7465031 12.80768896 5.82167648 14.84527652 9.8968499 16.00961075 46.57341705 13.09877336 80.6302279 38.71415301 101.0060981 76.55505444 43.37149357 80.04805899 12.22552182 187.74908513-10.47901876 266.34172537-1.7465031 6.11276092-3.49300626 11.93443743-5.23950939 17.75611393-18.92044987 66.94928562-19.21153428 112.06728395-1.45542037 167.08213218 29.39946859 90.52707768 141.17566811 114.39595423 229.9562444 118.76221195 2.32867029 0 4.36625782 0.29108441 6.11276089 0.58216718h662.50684868c10.18793425 0 19.79370144-4.07517339 27.07079832-11.93443745 7.27709688-7.56817962 10.7701031-17.46503115 10.77010312-27.6529654l-29.98163741-980.95258496c-0.29108441-4.6573422-7.27709688-4.94842492-7.5681796-4.94842492zM675.24267755 521.60576714c-62.87411226 0-114.10486973-51.23075759-114.10486974-114.10486977s51.23075759-114.10486973 114.10486974-114.10487142 114.10486973 51.23075759 114.10487153 114.10487142-51.23075759 114.10486973-114.10487153 114.10486977z m300.68962067 0c-62.87411226 0-114.10486973-51.23075759-114.10486977-114.10486977s51.23075759-114.10486973 114.10486977-114.10487142 114.10486973 51.23075759 114.10486979 114.10487142-50.93967482 114.10486973-114.10486979 114.10486977z m0 0" p-id="25031"/><path fill="#1296db" d="M675.24267755 364.12940211c-23.86887644 0-43.37149357 19.50261869-43.37149348 43.37149526s19.50261869 43.37149357 43.37149348 43.37149349 43.37149357-19.50261869 43.37149528-43.37149349c-0.29108441-23.86887644-19.50261869-43.37149357-43.37149528-43.37149526z m0 0M975.93229822 364.12940211c-23.86887644 0-43.37149357 19.50261869-43.37149356 43.37149526s19.50261869 43.37149357 43.37149356 43.37149349 43.37149357-19.50261869 43.37149348-43.37149349-19.50261869-43.37149357-43.37149348-43.37149526z m0 0" p-id="25032"/></svg>